<svg xmlns="http://www.w3.org/2000/svg" width="310.541" height="155.997" viewBox="0 0 310.541 155.997">
  <g id="Group_247" data-name="Group 247" transform="translate(-82.214 -65.348)">
    <g id="Bamboo" transform="translate(82.871 65.348)" style="isolation: isolate">
      <g id="Group_311" data-name="Group 311" transform="translate(0 4.404)" style="isolation: isolate">
        <path id="Path_135" data-name="Path 135" d="M82.416,128.358V66.7H99.063c14.177,0,23.6,2.2,23.6,15.854,0,5.548-1.583,9.864-5.2,12.858,7.134,2.733,10.748,6.962,10.748,14.8,0,14.268-11.717,18.146-22.023,18.146ZM93.691,76.3V91.453H104.7c3.172,0,7.485-1.32,7.485-7.222,0-6.432-3.344-7.927-8.541-7.927Zm0,24.045v18.409h11.1c7.222,0,11.8-2.2,11.8-9.162,0-7.134-4.846-9.247-11.187-9.247Z" transform="translate(-82.416 -66.703)" fill="#0a0a0a"/>
      </g>
      <g id="Group_312" data-name="Group 312" transform="translate(49.75 21.314)" style="isolation: isolate">
        <path id="Path_136" data-name="Path 136" d="M137.8,117.528h-3.965c-4.934,0-8.19-2.025-9.864-5.106-2.906,3.26-8.19,5.106-13.475,5.106-7.046,0-12.77-4.843-12.77-13.209,0-12.419,16.468-15.5,24.747-15.766-.263-5.021-2.288-7.222-7.927-7.222-3.962,0-7.4,1.056-12.065,3.348l-.969-8.9a36.376,36.376,0,0,1,16.03-3.877c9.864,0,15.942,4.934,15.942,17.707V101.5c0,6.6.7,7.046,3.874,7.046h1.411Zm-15.24-21.574c-6.162.263-13.387,2.73-13.387,7.924,0,3.611,1.762,5.285,5.9,5.285a11.88,11.88,0,0,0,7.485-3.169Z" transform="translate(-97.723 -71.906)" fill="#0a0a0a"/>
      </g>
      <g id="Group_313" data-name="Group 313" transform="translate(96.682 21.314)" style="isolation: isolate">
        <path id="Path_137" data-name="Path 137" d="M167.74,116.651V92.957c0-8.1-2.116-12.068-8.194-12.068-7.222,0-8.717,4.053-8.717,8.545v27.217H139.994V92.957c0-9.513-2.642-12.068-8.808-12.068a10.085,10.085,0,0,0-8.1,3.611v32.15h-10.92V72.611h8.983l.614,3.435a18.122,18.122,0,0,1,11.275-4.141,16.02,16.02,0,0,1,13.475,6.7c1.5-2.818,6.7-6.7,14.622-6.7,11.892,0,17.528,8.72,17.528,21.051v23.694Z" transform="translate(-112.163 -71.906)" fill="#0a0a0a"/>
      </g>
      <g id="Group_314" data-name="Group 314" transform="translate(170.122)" style="isolation: isolate">
        <path id="Path_138" data-name="Path 138" d="M145.15,128.94l-.176,2.467H134.759V65.348h10.92V89.571a17.209,17.209,0,0,1,10.306-2.909c14.089,0,21.578,10.482,21.578,22.813s-7.488,22.809-21.578,22.809A17.287,17.287,0,0,1,145.15,128.94Zm0-19.465c0,8.19,3.084,13.829,10.131,13.829s11.1-5.639,11.1-13.829-4.05-13.829-11.1-13.829S145.15,101.282,145.15,109.475Z" transform="translate(-134.759 -65.348)" fill="#0a0a0a"/>
      </g>
      <g id="Group_315" data-name="Group 315" transform="translate(216.706 21.314)" style="isolation: isolate">
        <path id="Path_139" data-name="Path 139" d="M149.092,94.719c0-12.331,8.19-22.813,22.283-22.813s22.283,10.482,22.283,22.813-8.19,22.809-22.283,22.809S149.092,107.05,149.092,94.719Zm11.184,0c0,8.19,4.053,13.829,11.1,13.829s11.1-5.639,11.1-13.829-4.05-13.829-11.1-13.829S160.276,86.525,160.276,94.719Z" transform="translate(-149.092 -71.906)" fill="#0a0a0a"/>
      </g>
      <g id="Group_316" data-name="Group 316" transform="translate(265.319 21.314)" style="isolation: isolate">
        <path id="Path_140" data-name="Path 140" d="M164.049,94.719c0-12.331,8.19-22.813,22.283-22.813s22.283,10.482,22.283,22.813-8.19,22.809-22.283,22.809S164.049,107.05,164.049,94.719Zm11.184,0c0,8.19,4.053,13.829,11.1,13.829s11.1-5.639,11.1-13.829-4.05-13.829-11.1-13.829S175.233,86.525,175.233,94.719Z" transform="translate(-164.049 -71.906)" fill="#0a0a0a"/>
      </g>
    </g>
    <g id="Factory" transform="translate(82.214 149.215)" style="isolation: isolate">
      <g id="Group_317" data-name="Group 317" style="isolation: isolate">
        <path id="Path_141" data-name="Path 141" d="M89.488,97.737v15.7h19.6v6.585h-19.6v24.734H82.214v-53.6h32.7v6.585Z" transform="translate(-82.214 -91.152)" fill="#292929"/>
        <path id="Path_142" data-name="Path 142" d="M125.012,134.917h-.536c-6.66,0-8.116-1.989-9.646-5.512a14.843,14.843,0,0,1-11.486,5.512c-6.968,0-11.564-4.592-11.564-10.875,0-10.566,12.864-13.244,22.436-13.4,0-7.121-2.909-8.655-8.194-8.655-2.831,0-5.9.618-9.877,3.37l-.995-5.59a21.615,21.615,0,0,1,12.711-3.907c9.494,0,13.248,4.443,13.248,18v7.657c0,5.359.306,7.888,4.287,7.888h.689Zm-10.8-19.527c-10.95.383-15.389,2.681-15.389,8.272,0,4.056,2.373,5.743,5.818,5.743a12.164,12.164,0,0,0,9.572-5.054Z" transform="translate(-60.691 -80.552)" fill="#292929"/>
        <path id="Path_143" data-name="Path 143" d="M103.206,115.315c0-10.95,6.123-19.452,18.607-19.452,5.665,0,9.341,1,11.561,2.223l-1.073,6.2a21.935,21.935,0,0,0-9.724-2.3c-8.346,0-12.328,4.979-12.328,13.326,0,8.194,3.981,13.553,12.328,13.553a22.267,22.267,0,0,0,9.8-2.295l.92,5.512c-2.223,1.453-5.363,2.831-11.411,2.831C109.407,134.917,103.206,125.8,103.206,115.315Z" transform="translate(-34.979 -80.552)" fill="#292929"/>
        <path id="Path_144" data-name="Path 144" d="M135.89,141.276h-6.2c-7.121,0-9.8-4.44-9.8-8.957v-23.97h-6.435l.614-5.356h5.821V93.726l6.89-.689v9.955h9.877v5.356H126.78v19.758c0,7.2.458,7.657,7.885,7.657h1.762Z" transform="translate(-11.92 -86.91)" fill="#292929"/>
        <path id="Path_145" data-name="Path 145" d="M121.535,115.39c0-10.872,6.816-19.527,18.607-19.527,11.717,0,18.607,8.655,18.607,19.527s-6.89,19.527-18.607,19.527C128.351,134.917,121.535,126.265,121.535,115.39Zm7.046,0c0,8.424,4.134,13.4,11.561,13.4s11.561-4.976,11.561-13.4-4.134-13.4-11.561-13.4S128.581,106.969,128.581,115.39Z" transform="translate(6.264 -80.552)" fill="#292929"/>
      </g>
      <g id="Group_318" data-name="Group 318" transform="translate(171.442 14.704)" style="isolation: isolate">
        <path id="Path_146" data-name="Path 146" d="M153.265,103.255h-2.373c-3.14,0-7.274,2.451-8.577,4.823v26.5h-7.352V97.054h5.668l.842,6.2c4.518-5.129,8.116-7.579,12.711-7.579h.611Z" transform="translate(-134.963 -95.676)" fill="#292929"/>
      </g>
      <g id="Group_319" data-name="Group 319" transform="translate(193.27 15.311)" style="isolation: isolate">
        <path id="Path_147" data-name="Path 147" d="M158.6,152.682h-9.5l8.5-21.058L141.679,95.863h10.566l9.8,24.659L172,95.863h10.569Z" transform="translate(-141.679 -95.863)" fill="#fe3b3a"/>
      </g>
    </g>
  </g>
</svg>
